<?xml version="1.0" encoding="utf-8"?>
<!-- Generator: Adobe Illustrator 24.0.1, SVG Export Plug-In . SVG Version: 6.00 Build 0)  -->
<svg version="1.1" xmlns="http://www.w3.org/2000/svg" xmlns:xlink="http://www.w3.org/1999/xlink" x="0px" y="0px"
	 viewBox="0 0 4000 4000" style="enable-background:new 0 0 4000 4000;" xml:space="preserve">
<style type="text/css">
	.st0{fill:#FFFFFF;}
	.st1{fill-rule:evenodd;clip-rule:evenodd;fill:#F1F8FE;}
	.st2{fill-rule:evenodd;clip-rule:evenodd;fill:#F7FBFE;}
	.st3{fill:#F7FBFE;}
	.st4{fill:#F1F8FE;}
	.st5{fill:#E8F3FD;}
	.st6{fill:#FFFFFF;stroke:#268EEB;stroke-width:3;stroke-linecap:round;stroke-linejoin:round;stroke-miterlimit:2.6131;}
	.st7{fill:#268EEB;}
	.st8{fill:#D4E8FB;}
</style>
<g id="_x32_5">
	<g>
		<rect class="st0" width="4000" height="4000"/>
		<g>
			<g>
				<g>
					<g>
						<g>
							<path class="st1" d="M987.54,3266.58c-16.02,0-29.13,13.24-29.13,29.37c0,15.84,12.58,28.84,28.12,29.37h479.47
								c0.34,0,0.62,0.05,0.96,0.05c15.59,0.53,28.12,13.53,28.12,29.37c0,16.18-13.11,29.41-29.08,29.41h-407.35
								c-16.02,0-29.08,13.24-29.08,29.38c0,15.8,12.43,28.79,27.93,29.37h408.68c0.38,0,0.77,0.05,1.15,0.05
								c15.5,0.63,27.93,13.57,27.93,29.37c0,16.18-13.06,29.41-29.08,29.41h-192.41c-16.02,0-29.13,13.24-29.13,29.42
								c0,15.7,12.44,28.64,27.84,29.37h289.69c0.43,0,0.86,0,1.29,0c15.4,0.72,27.79,13.67,27.79,29.37
								c0,11.64-6.8,21.72-16.55,26.48c-0.73,0.35-1.48,0.68-2.24,0.98c-0.21,0.08-0.42,0.16-0.63,0.24
								c-0.81,0.29-1.63,0.54-2.47,0.76c-0.22,0.05-0.44,0.12-0.66,0.17c-0.84,0.2-1.69,0.35-2.55,0.47
								c-0.23,0.03-0.46,0.08-0.7,0.11c-1.08,0.13-2.17,0.2-3.27,0.2h-121.72c-9.52,4.83-16.07,14.79-16.07,26.23
								c0,16.19,13.06,29.42,29.08,29.42h1093.05c16.03,0,29.13-13.24,29.13-29.42c0-11.4-6.55-21.35-16.02-26.23h-306.52
								c-1.08,0-2.15-0.07-3.21-0.19c-0.43-0.05-0.84-0.13-1.27-0.2c-0.6-0.09-1.2-0.19-1.79-0.32c-0.53-0.12-1.04-0.26-1.56-0.41
								c-0.45-0.13-0.91-0.26-1.36-0.42c-0.56-0.19-1.12-0.4-1.67-0.62c-0.38-0.16-0.74-0.32-1.11-0.49
								c-10.09-4.63-17.17-14.89-17.17-26.73c0-16.18,13.11-29.41,29.13-29.41h473.11c16.02,0,29.13-13.24,29.13-29.37
								c0-16.19-13.11-29.42-29.13-29.42h-507.3c-15.97,0-29.08-13.23-29.08-29.37c0-16.18,13.11-29.41,29.08-29.41h722.43
								c16.03,0,29.13-13.24,29.13-29.42c0-16.13-13.11-29.38-29.13-29.38h-382c-16.02,0-29.13-13.23-29.13-29.41
								c0-16.14,13.11-29.37,29.13-29.37h242.82c16.02,0,29.08-13.24,29.08-29.42c0-16.13-13.06-29.37-29.08-29.37h-379.51
								c-15.97,0-29.08-13.24-29.08-29.42s13.11-29.38,29.08-29.38h777.01c15.97,0,29.08-13.23,29.08-29.41
								s-13.11-29.38-29.08-29.38h-463.16c-16.02,0-29.13-13.23-29.13-29.41s13.11-29.42,29.13-29.42h298.49
								c16.02,0,29.13-13.19,29.13-29.37s-13.11-29.42-29.13-29.42h-126.41c-15.98,0-29.08-13.24-29.08-29.37
								c0-16.18,13.11-29.42,29.08-29.42h291.08c15.97,0,29.08-13.24,29.08-29.37c0-16.18-13.11-29.42-29.08-29.42H800.39
								c-16.02,0-29.13,13.24-29.13,29.42c0,16.13,13.11,29.37,29.13,29.37h397.35c15.97,0,29.08,13.24,29.08,29.42
								c0,16.13-13.11,29.37-29.08,29.37H931.82c-15.97,0-29.08,13.24-29.08,29.42c0,15.99,12.82,29.13,28.6,29.37h572.59
								c0.19,0,0.33,0,0.53,0c15.78,0.29,28.6,13.43,28.6,29.42c0,16.18-13.11,29.37-29.13,29.37l0.3,0.04H990.03
								c-15.97,0-29.08,13.19-29.08,29.38c0,15.89,12.62,28.94,28.26,29.37h618.51c0.29,0,0.57,0,0.81,0.04
								c15.64,0.44,28.31,13.48,28.31,29.38c0,14-9.81,25.74-22.83,28.66"/>
						</g>
					</g>
					<path class="st2" d="M1614.02,3265.82l-6.3,0.71C1609.88,3266.53,1611.98,3266.27,1614.02,3265.82z"/>
				</g>
			</g>
			<path class="st3" d="M2000,520c987.08,0,1787.26,1018.24,1787.26,2274.32H212.74C212.74,1538.24,1012.92,520,2000,520L2000,520z"
				/>
			<path class="st4" d="M2000,1058.19c753.47,0,1364.33,777.32,1364.33,1736.13H635.67C635.67,1835.51,1246.53,1058.19,2000,1058.19
				L2000,1058.19z"/>
			<path class="st5" d="M2000,1575.34c529.04,0,957.93,545.76,957.93,1218.98H1042.07C1042.07,2121.1,1470.96,1575.34,2000,1575.34
				L2000,1575.34z"/>
		</g>
	</g>
	<g>
		<g>
			<path class="st6" d="M746.62,1023.12c0-83.33,66.87-150.86,149.37-150.86c82.5,0,149.37,67.54,149.37,150.86 M1272.41,1023.12
				h-43.55 M888.88,1059.89h-217.5 M746.62,1023.12h-217.5 M1228.86,1023.12c0-51.18-41.08-92.66-91.76-92.66
				c-50.66,0-91.74,41.47-91.74,92.66"/>
		</g>
	</g>
	<g>
		<g>
			<path class="st6" d="M2737.06,1311.54c0-60.06,48.21-108.75,107.68-108.75c59.46,0,107.67,48.68,107.67,108.75 M2604.79,1311.54
				H2473.4 M3056.64,1338.05h-206.78 M3009.18,1311.54h-56.78 M2737.06,1311.54c0-36.89-29.61-66.79-66.13-66.79
				c-36.52,0-66.14,29.9-66.14,66.79"/>
		</g>
	</g>
	<g>
		<path class="st7" d="M3293.3,848.59c-2.35,0-4.59-1.1-6.02-3.02c-15.45-20.75-49.63-26.11-77.84-12.21
			c-3.71,1.84-8.21,0.31-10.04-3.41c-1.83-3.72-0.3-8.21,3.41-10.04c30.08-14.84,66.2-11.14,87.95,7.56
			c13.53-26.86,40.83-38.62,83.23-35.95c4.13,0.26,7.27,3.83,7.01,7.96c-0.26,4.13-3.63,7.24-7.96,7.01
			c-53.25-3.38-66.98,19.44-72.6,36.9c-0.86,2.67-3.14,4.64-5.91,5.1C3294.12,848.55,3293.71,848.59,3293.3,848.59z"/>
	</g>
	<g>
		<path class="st7" d="M3563.8,1008.01c-2.35,0-4.59-1.1-6.02-3.02c-12.13-16.3-39.08-20.47-61.38-9.48
			c-3.71,1.84-8.21,0.31-10.04-3.41c-1.83-3.72-0.3-8.21,3.41-10.04c24.3-11.99,53.37-9.33,71.55,5.22
			c11.55-20.99,34.44-30.52,68.02-28.4c4.14,0.26,7.28,3.83,7.01,7.96c-0.26,4.13-3.79,7.24-7.96,7.01
			c-42.28-2.69-53.05,15.23-57.46,28.96c-0.86,2.67-3.14,4.64-5.91,5.1C3564.61,1007.97,3564.2,1008.01,3563.8,1008.01z"/>
	</g>
	<g>
		<path class="st7" d="M2731.26,445.54c-2.35,0-4.59-1.1-6.02-3.02c-24.46-32.86-78.32-41.49-122.64-19.64
			c-3.71,1.84-8.21,0.31-10.04-3.41c-1.83-3.71-0.3-8.21,3.41-10.04c46-22.68,101.49-15.97,132.71,14.35
			c18.94-42.4,59.76-61.06,124.5-56.94c4.13,0.26,7.27,3.83,7.01,7.96c-0.26,4.13-3.66,7.26-7.96,7.01
			c-63.49-4.05-99.68,14.56-113.83,58.53c-0.86,2.67-3.14,4.64-5.91,5.1C2732.08,445.51,2731.67,445.54,2731.26,445.54z"/>
	</g>
	<g>
		<path class="st7" d="M2980.8,763.69c-2.35,0-4.59-1.1-6.02-3.02c-15.44-20.75-49.63-26.12-77.84-12.21
			c-3.71,1.84-8.21,0.31-10.04-3.41c-1.83-3.72-0.3-8.21,3.41-10.04c30.09-14.85,66.2-11.14,87.95,7.56
			c13.53-26.86,40.82-38.62,83.23-35.95c4.13,0.26,7.27,3.83,7.01,7.96c-0.26,4.13-3.66,7.25-7.96,7.01
			c-53.26-3.38-66.98,19.44-72.6,36.9c-0.86,2.67-3.14,4.64-5.91,5.1C2981.61,763.66,2981.2,763.69,2980.8,763.69z"/>
	</g>
	<g>
		<path class="st7" d="M3672.2,1343.61c-1.74,0-3.4-0.82-4.46-2.24c-7.23-9.73-23.46-12.2-36.96-5.6c-2.75,1.35-6.08,0.21-7.43-2.55
			c-1.35-2.76-0.21-6.08,2.55-7.43c15.32-7.5,32.98-6.11,44.53,2.68c7.5-12.64,21.75-18.4,42.48-17.15
			c3.06,0.19,5.39,2.82,5.21,5.88c-0.19,3.06-2.71,5.42-5.88,5.21c-25.26-1.56-31.87,8.47-34.76,17.36
			c-0.64,1.98-2.33,3.43-4.38,3.77C3672.79,1343.58,3672.5,1343.61,3672.2,1343.61z"/>
	</g>
	<g>
		<g>
			<g>
				<rect x="1316.74" y="1480.39" class="st8" width="1367.92" height="1293.88"/>
			</g>
			<g>
				<rect x="1316.74" y="1480.39" class="st0" width="44.89" height="1165.23"/>
			</g>
			<g>
				<rect x="2639.74" y="1480.39" class="st8" width="44.92" height="1165.23"/>
			</g>
			<g>
				<rect x="2229.66" y="2645.62" class="st0" width="455" height="128.65"/>
			</g>
			<g>
				<rect x="1316.74" y="2645.62" class="st0" width="455.7" height="128.65"/>
			</g>
			<g>
				<polygon class="st0" points="1600.17,1615.72 2401.18,1615.72 2401.18,2645.62 2229.66,2645.62 2229.66,2774.27 
					1772.44,2774.27 1772.44,2645.62 1600.17,2645.62 				"/>
			</g>
			<g>
				<polygon class="st8" points="1654.66,1683.38 2347.45,1683.38 2347.45,2645.62 2229.66,2645.62 2229.66,2774.27 
					1772.44,2774.27 1772.44,2645.62 1654.66,2645.62 				"/>
			</g>
			<g>
				<rect x="1925.59" y="2392.03" class="st8" width="141.36" height="382.24"/>
			</g>
			<g>
				<path class="st0" d="M1996.28,2458.97L1996.28,2458.97c39,0,70.67,32.72,70.67,72.11v243.18h-141.36v-243.18
					C1925.59,2491.69,1957.24,2458.97,1996.28,2458.97L1996.28,2458.97z"/>
			</g>
			<g>
				<path class="st0" d="M2129.51,2542.24c-29.43,37.18-27.24,5.96-27.24,90.72c0,3.73,0,137.57,0,141.3h53.75
					c0-3.73,0-137.58,0-141.3C2156.76,2549.69,2160.43,2578.68,2129.51,2542.24L2129.51,2542.24z"/>
			</g>
			<g>
				<path class="st8" d="M1867.44,2542.24c-28.72,37.18-27.25,5.96-26.51,90.72c0,2.97,0,137.57,0,140.54h53.75
					c0-2.96,0-137.57,0-140.54C1894.68,2549.69,1898.35,2578.68,1867.44,2542.24L1867.44,2542.24z"/>
			</g>
			<g>
				<path class="st0" d="M1996.28,2495.41L1996.28,2495.41c25.75,0,47.1,23.8,47.1,53.53v225.33h-94.22v-225.33
					C1949.16,2519.21,1970.51,2495.41,1996.28,2495.41L1996.28,2495.41z"/>
			</g>
			<g>
				<polygon class="st8" points="1699.58,1759.23 1766.56,1759.23 1766.56,1741.39 2234.79,1741.39 2234.79,1759.23 
					2301.82,1759.23 2301.82,1806.08 1699.58,1806.08 				"/>
			</g>
			<g>
				<rect x="1427.18" y="1611.26" class="st8" width="119.99" height="129.38"/>
			</g>
			<g>
				<rect x="1427.18" y="1870.77" class="st0" width="119.99" height="197.8"/>
			</g>
			<g>
				<rect x="1427.18" y="2128.8" class="st8" width="119.99" height="197.8"/>
			</g>
			<g>
				<rect x="1427.18" y="2386.83" class="st8" width="119.99" height="198.55"/>
			</g>
			<g>
				<rect x="2460.81" y="1611.26" class="st0" width="120.03" height="129.38"/>
			</g>
			<g>
				<rect x="2460.81" y="1870.77" class="st0" width="120.03" height="197.8"/>
			</g>
			<g>
				<rect x="2460.81" y="2128.8" class="st8" width="120.03" height="197.8"/>
			</g>
			<g>
				<rect x="2460.81" y="2386.83" class="st8" width="120.03" height="198.55"/>
			</g>
			<g>
				<path class="st0" d="M1883.62,2299.09v88.49h-38.28v-88.49C1845.34,2270.83,1883.62,2270.83,1883.62,2299.09L1883.62,2299.09z"
					/>
			</g>
			<g>
				<path class="st0" d="M2153.09,2299.09v88.49h-38.28v-88.49C2114.8,2270.83,2153.09,2270.83,2153.09,2299.09L2153.09,2299.09z"/>
			</g>
			<g>
				<polygon class="st8" points="2684.66,2270.08 3052.02,2270.08 3035.08,2774.27 2684.66,2774.27 				"/>
			</g>
			<g>
				<polygon class="st8" points="3040.22,2645.62 2684.66,2645.62 2684.66,2774.27 3035.08,2774.27 				"/>
			</g>
			<g>
				<path class="st0" d="M2775.21,2299.83L2775.21,2299.83c24.29,0,43.42,19.33,43.42,43.87v105.59h-86.88V2343.7
					C2731.75,2319.16,2750.9,2299.83,2775.21,2299.83L2775.21,2299.83z"/>
			</g>
			<g>
				<path class="st8" d="M2985,2299.83L2985,2299.83c22.1,0,40.51,17.85,40.51,40.9v108.55h-80.99v-108.55
					C2944.52,2317.68,2962.2,2299.83,2985,2299.83L2985,2299.83z"/>
			</g>
			<g>
				<path class="st0" d="M2878.28,2299.83L2878.28,2299.83c-22.1,0-40.51,17.85-40.51,40.9v108.55h80.99v-108.55
					C2918.76,2317.68,2901.07,2299.83,2878.28,2299.83L2878.28,2299.83z"/>
			</g>
			<g>
				<path class="st8" d="M2764.87,2457.47c46.4,52.07,55.22,31.99,56.72,87.76c-0.76,20.8,0,52.05,0,100.39h-112.67
					C2708.93,2466.4,2698.63,2527.37,2764.87,2457.47L2764.87,2457.47z"/>
			</g>
			<g>
				<path class="st0" d="M2878.28,2457.47c-63.33,71.38-56.69,6.7-56.69,188.15h112.64c0-61.74-0.73-95.19,0.74-115.27
					C2932.75,2493.17,2921.7,2502.83,2878.28,2457.47L2878.28,2457.47z"/>
			</g>
			<g>
				<path class="st8" d="M2991.65,2457.47c32.39,35.7,46.37,37.19,52.28,52.81l-4.43,135.34h-105.26
					C2934.23,2466.4,2925.37,2527.37,2991.65,2457.47L2991.65,2457.47z"/>
			</g>
			<g>
				<rect x="2684.66" y="2184.57" class="st8" width="320.23" height="23.8"/>
			</g>
			<g>
				<polygon class="st0" points="2722.93,2013.54 2901.82,2013.54 2836.3,1958.52 2787.71,1958.52 				"/>
			</g>
			<g>
				<polygon class="st8" points="2776.67,2013.54 2848.07,2013.54 2819.36,1958.52 2805.38,1958.52 				"/>
			</g>
			<g>
				<path class="st0" d="M2812.01,1939.19c10.3,0,18.41,8.92,18.41,19.33h-36.81C2793.61,1948.11,2801.7,1939.19,2812.01,1939.19
					L2812.01,1939.19z"/>
			</g>
			<g>
				<path class="st8" d="M2812.01,1885.64c6.61,0,11.79,5.2,11.79,11.9c0,5.94-5.18,11.89-11.79,11.89
					c-6.63,0-11.78-5.95-11.78-11.89C2800.23,1890.84,2805.38,1885.64,2812.01,1885.64L2812.01,1885.64z"/>
			</g>
			<g>
				<path class="st8" d="M2902.55,2013.54c58.93,29,103.08,86.26,98.67,150.95l-1.47,20.08h-315.09v-148.72
					c11.03-8.92,24.27-16.36,36.05-22.31H2902.55z"/>
			</g>
			<g>
				<rect x="2684.66" y="2208.37" class="st0" width="334.23" height="61.71"/>
			</g>
			<g>
				<polygon class="st0" points="3072.64,1683.38 3199.99,1683.38 3237.55,2774.27 3035.08,2774.27 				"/>
			</g>
			<g>
				<polygon class="st8" points="3202.93,1754.03 3208.11,1910.93 3064.52,1910.93 3069.7,1754.03 				"/>
			</g>
			<g>
				<polygon class="st8" points="3072.64,1683.38 3199.99,1683.38 3237.55,1550.29 3035.08,1550.29 				"/>
			</g>
			<g>
				<rect x="1766.56" y="2774.27" class="st0" width="468.23" height="34.19"/>
			</g>
			<g>
				<rect x="1726.08" y="2808.46" class="st8" width="549.96" height="34.18"/>
			</g>
			<g>
				<rect x="1701.05" y="2842.64" class="st8" width="600.02" height="34.95"/>
			</g>
			<g>
				<rect x="1667.19" y="2877.59" class="st8" width="667.01" height="34.22"/>
			</g>
			<g>
				<polygon class="st8" points="1316.74,2270.08 949.35,2270.08 967.02,2774.27 1316.74,2774.27 				"/>
			</g>
			<g>
				<polygon class="st8" points="961.14,2645.62 1316.74,2645.62 1316.74,2774.27 967.02,2774.27 				"/>
			</g>
			<g>
				<path class="st8" d="M1226.19,2299.83L1226.19,2299.83c-23.56,0-43.44,19.33-43.44,43.87v105.59h87.6V2343.7
					C1270.35,2319.16,1250.47,2299.83,1226.19,2299.83L1226.19,2299.83z"/>
			</g>
			<g>
				<path class="st8" d="M1017.09,2299.83L1017.09,2299.83c-22.09,0-40.51,17.85-40.51,40.9v108.55h80.99v-108.55
					C1057.57,2317.68,1039.19,2299.83,1017.09,2299.83L1017.09,2299.83z"/>
			</g>
			<g>
				<path class="st0" d="M1123.11,2299.83L1123.11,2299.83c22.09,0,40.48,17.85,40.48,40.9v108.55h-80.99v-108.55
					C1082.61,2317.68,1101.02,2299.83,1123.11,2299.83L1123.11,2299.83z"/>
			</g>
			<g>
				<path class="st8" d="M1236.49,2457.47c-46.39,52.07-55.22,31.99-55.96,87.76c0,20.8,0,52.05,0,100.39h111.91
					C1292.44,2466.4,1303.47,2527.37,1236.49,2457.47L1236.49,2457.47z"/>
			</g>
			<g>
				<path class="st8" d="M1123.11,2457.47c64.04,71.38,57.42,6.7,57.42,188.15h-113.37c0-61.74,1.46-95.19,0-115.27
					C1069.37,2493.17,1079.67,2502.83,1123.11,2457.47L1123.11,2457.47z"/>
			</g>
			<g>
				<path class="st0" d="M1009.74,2457.47c-31.68,35.7-45.65,37.19-52.28,52.81l5.15,135.34h104.55
					C1067.17,2466.4,1076.72,2527.37,1009.74,2457.47L1009.74,2457.47z"/>
			</g>
			<g>
				<rect x="996.47" y="2184.57" class="st8" width="320.27" height="23.8"/>
			</g>
			<g>
				<polygon class="st8" points="1279.18,2013.54 1100.29,2013.54 1165.07,1958.52 1213.66,1958.52 				"/>
			</g>
			<g>
				<polygon class="st0" points="1224.69,2013.54 1154.03,2013.54 1182.75,1958.52 1195.98,1958.52 				"/>
			</g>
			<g>
				<path class="st8" d="M1189.36,1939.19c-10.29,0-18.41,8.92-18.41,19.33h36.83C1207.78,1948.11,1199.69,1939.19,1189.36,1939.19
					L1189.36,1939.19z"/>
			</g>
			<g>
				<path class="st0" d="M1189.36,1885.64c-6.61,0-11.76,5.2-11.76,11.9c0,5.94,5.15,11.89,11.76,11.89c6.63,0,11.8-5.95,11.8-11.89
					C1201.15,1890.84,1195.98,1885.64,1189.36,1885.64L1189.36,1885.64z"/>
			</g>
			<g>
				<path class="st8" d="M1099.55,2013.54c-58.9,29-103.08,86.26-98.67,150.95l0.74,20.08h315.12v-148.72
					c-10.32-8.92-23.57-16.36-36.09-22.31H1099.55z"/>
			</g>
			<g>
				<rect x="982.5" y="2208.37" class="st0" width="334.24" height="61.71"/>
			</g>
			<g>
				<polygon class="st0" points="929.49,1683.38 801.38,1683.38 763.84,2774.27 967.02,2774.27 				"/>
			</g>
			<g>
				<polygon class="st0" points="799.17,1754.03 794.02,1910.93 936.84,1910.93 931.69,1754.03 				"/>
			</g>
			<g>
				<polygon class="st0" points="929.49,1683.38 801.38,1683.38 763.84,1550.29 967.02,1550.29 				"/>
			</g>
		</g>
		<path class="st7" d="M2684.66,2781.77H1316.74c-4.14,0-7.5-3.36-7.5-7.5V1480.39c0-4.14,3.36-7.5,7.5-7.5h1367.92
			c4.14,0,7.5,3.36,7.5,7.5v1293.88C2692.16,2778.41,2688.8,2781.77,2684.66,2781.77z M1324.24,2766.77h1352.92V1487.89H1324.24
			V2766.77z"/>
		<path class="st7" d="M1361.63,2653.12h-44.89c-4.14,0-7.5-3.36-7.5-7.5V1480.39c0-4.14,3.36-7.5,7.5-7.5h44.89
			c4.14,0,7.5,3.36,7.5,7.5v1165.23C1369.13,2649.76,1365.78,2653.12,1361.63,2653.12z M1324.24,2638.12h29.89V1487.89h-29.89
			V2638.12z"/>
		<path class="st7" d="M2684.66,2653.12h-44.92c-4.14,0-7.5-3.36-7.5-7.5V1480.39c0-4.14,3.36-7.5,7.5-7.5h44.92
			c4.14,0,7.5,3.36,7.5,7.5v1165.23C2692.16,2649.76,2688.8,2653.12,2684.66,2653.12z M2647.24,2638.12h29.92V1487.89h-29.92
			V2638.12z"/>
		<path class="st7" d="M2684.66,2781.77h-455c-4.14,0-7.5-3.36-7.5-7.5v-128.65c0-4.14,3.36-7.5,7.5-7.5h455
			c4.14,0,7.5,3.36,7.5,7.5v128.65C2692.16,2778.41,2688.8,2781.77,2684.66,2781.77z M2237.16,2766.77h440v-113.65h-440V2766.77z"/>
		<path class="st7" d="M1772.44,2781.77h-455.7c-4.14,0-7.5-3.36-7.5-7.5v-128.65c0-4.14,3.36-7.5,7.5-7.5h455.7
			c4.14,0,7.5,3.36,7.5,7.5v128.65C1779.94,2778.41,1776.59,2781.77,1772.44,2781.77z M1324.24,2766.77h440.7v-113.65h-440.7
			V2766.77z"/>
		<path class="st7" d="M2229.66,2781.77h-457.21c-4.14,0-7.5-3.36-7.5-7.5v-121.15h-164.77c-4.14,0-7.5-3.36-7.5-7.5v-1029.9
			c0-4.14,3.36-7.5,7.5-7.5h801.01c4.14,0,7.5,3.36,7.5,7.5v1029.9c0,4.14-3.36,7.5-7.5,7.5h-164.02v121.15
			C2237.16,2778.41,2233.8,2781.77,2229.66,2781.77z M1779.94,2766.77h442.21v-121.15c0-4.14,3.36-7.5,7.5-7.5h164.02v-1014.9
			h-786.01v1014.9h164.77c4.14,0,7.5,3.36,7.5,7.5V2766.77z"/>
		<path class="st7" d="M2229.66,2781.77h-457.21c-4.14,0-7.5-3.36-7.5-7.5v-121.15h-110.28c-4.14,0-7.5-3.36-7.5-7.5v-962.24
			c0-4.14,3.36-7.5,7.5-7.5h692.79c4.14,0,7.5,3.36,7.5,7.5v962.24c0,4.14-3.36,7.5-7.5,7.5h-110.29v121.15
			C2237.16,2778.41,2233.8,2781.77,2229.66,2781.77z M1779.94,2766.77h442.21v-121.15c0-4.14,3.36-7.5,7.5-7.5h110.29v-947.24
			h-677.79v947.24h110.28c4.14,0,7.5,3.36,7.5,7.5V2766.77z"/>
		<path class="st7" d="M2066.95,2781.77h-141.36c-4.14,0-7.5-3.36-7.5-7.5v-382.24c0-4.14,3.36-7.5,7.5-7.5h141.36
			c4.14,0,7.5,3.36,7.5,7.5v382.24C2074.45,2778.41,2071.09,2781.77,2066.95,2781.77z M1933.09,2766.77h126.36v-367.24h-126.36
			V2766.77z"/>
		<path class="st7" d="M2066.95,2781.77h-141.36c-4.14,0-7.5-3.36-7.5-7.5v-243.18c0-43.9,35.08-79.61,78.19-79.61
			c43.1,0,78.17,35.71,78.17,79.61v243.18C2074.45,2778.41,2071.09,2781.77,2066.95,2781.77z M1933.09,2766.77h126.36v-235.68
			c0-35.63-28.34-64.61-63.17-64.61c-34.84,0-63.19,28.98-63.19,64.61V2766.77z"/>
		<path class="st7" d="M2156.03,2781.77h-53.75c-4.14,0-7.5-3.36-7.5-7.5l-0.02-157.69c-0.1-47.02-0.1-49.84,12.71-61.65
			c3.79-3.5,8.99-8.28,16.17-17.34c1.39-1.76,3.51-2.81,5.75-2.85c2.29,0.04,4.39,0.93,5.84,2.65c6.93,8.17,12.09,12.95,15.86,16.44
			c13.39,12.41,13.35,14.79,12.74,54.59c-0.1,6.89-0.23,15-0.31,24.61v141.24C2163.53,2778.41,2160.17,2781.77,2156.03,2781.77z
			 M2109.78,2766.77h38.75v-133.8c0.08-9.71,0.21-17.85,0.31-24.77c0.54-35.5,0.54-35.5-7.94-43.36c-2.91-2.69-6.58-6.1-11.21-11.08
			c-5.05,5.75-8.98,9.37-12.06,12.21c-7.96,7.34-7.96,7.34-7.88,50.59L2109.78,2766.77z"/>
		<path class="st7" d="M1894.68,2781h-53.75c-4.14,0-7.5-3.36-7.5-7.5l-0.13-154.05c-0.51-50.5-0.52-52.48,12.26-64.38
			c3.75-3.49,8.89-8.28,15.95-17.42c1.38-1.79,3.5-2.86,5.76-2.92c2.31,0.06,4.43,0.93,5.89,2.65c6.97,8.22,12.15,13.01,15.94,16.5
			c13.41,12.4,13.4,14.83,13.16,55.49c-0.04,6.67-0.08,14.44-0.08,23.58v140.54C1902.18,2777.64,1898.82,2781,1894.68,2781z
			 M1848.43,2766h38.75v-133.04c0-9.17,0.04-16.98,0.08-23.66c0.21-36.48,0.21-36.48-8.35-44.39c-2.91-2.69-6.59-6.09-11.23-11.09
			c-4.97,5.77-8.85,9.39-11.9,12.23c-7.94,7.39-7.94,7.39-7.48,53.26l0.13,13.59V2766z"/>
		<path class="st7" d="M2043.38,2781.77h-94.22c-4.14,0-7.5-3.36-7.5-7.5v-225.33c0-33.65,24.5-61.03,54.62-61.03
			c30.1,0,54.6,27.38,54.6,61.03v225.33C2050.88,2778.41,2047.52,2781.77,2043.38,2781.77z M1956.66,2766.77h79.22v-217.83
			c0-25.38-17.76-46.03-39.6-46.03c-21.85,0-39.62,20.65-39.62,46.03V2766.77z"/>
		<path class="st7" d="M2301.82,1813.58h-602.24c-4.14,0-7.5-3.36-7.5-7.5v-46.85c0-4.14,3.36-7.5,7.5-7.5h59.48v-10.35
			c0-4.15,3.36-7.5,7.5-7.5h468.23c4.14,0,7.5,3.35,7.5,7.5v10.35h59.52c4.14,0,7.5,3.36,7.5,7.5v46.85
			C2309.32,1810.22,2305.96,1813.58,2301.82,1813.58z M1707.08,1798.58h587.24v-31.85h-59.52c-4.14,0-7.5-3.36-7.5-7.5v-10.35
			h-453.23v10.35c0,4.14-3.36,7.5-7.5,7.5h-59.48V1798.58z"/>
		<path class="st7" d="M1547.17,1748.14h-119.99c-4.14,0-7.5-3.36-7.5-7.5v-129.38c0-4.14,3.36-7.5,7.5-7.5h119.99
			c4.14,0,7.5,3.36,7.5,7.5v129.38C1554.67,1744.78,1551.31,1748.14,1547.17,1748.14z M1434.68,1733.14h104.99v-114.38h-104.99
			V1733.14z"/>
		<path class="st7" d="M1547.17,2076.07h-119.99c-4.14,0-7.5-3.36-7.5-7.5v-197.8c0-4.14,3.36-7.5,7.5-7.5h119.99
			c4.14,0,7.5,3.36,7.5,7.5v197.8C1554.67,2072.71,1551.31,2076.07,1547.17,2076.07z M1434.68,2061.07h104.99v-182.8h-104.99
			V2061.07z"/>
		<path class="st7" d="M1547.17,2334.11h-119.99c-4.14,0-7.5-3.36-7.5-7.5v-197.8c0-4.14,3.36-7.5,7.5-7.5h119.99
			c4.14,0,7.5,3.36,7.5,7.5v197.8C1554.67,2330.75,1551.31,2334.11,1547.17,2334.11z M1434.68,2319.11h104.99v-182.8h-104.99
			V2319.11z"/>
		<path class="st7" d="M1547.17,2592.88h-119.99c-4.14,0-7.5-3.36-7.5-7.5v-198.55c0-4.14,3.36-7.5,7.5-7.5h119.99
			c4.14,0,7.5,3.36,7.5,7.5v198.55C1554.67,2589.52,1551.31,2592.88,1547.17,2592.88z M1434.68,2577.88h104.99v-183.55h-104.99
			V2577.88z"/>
		<path class="st7" d="M2580.84,1748.14h-120.03c-4.14,0-7.5-3.36-7.5-7.5v-129.38c0-4.14,3.36-7.5,7.5-7.5h120.03
			c4.14,0,7.5,3.36,7.5,7.5v129.38C2588.34,1744.78,2584.98,1748.14,2580.84,1748.14z M2468.31,1733.14h105.03v-114.38h-105.03
			V1733.14z"/>
		<path class="st7" d="M2580.84,2076.07h-120.03c-4.14,0-7.5-3.36-7.5-7.5v-197.8c0-4.14,3.36-7.5,7.5-7.5h120.03
			c4.14,0,7.5,3.36,7.5,7.5v197.8C2588.34,2072.71,2584.98,2076.07,2580.84,2076.07z M2468.31,2061.07h105.03v-182.8h-105.03
			V2061.07z"/>
		<path class="st7" d="M2580.84,2334.11h-120.03c-4.14,0-7.5-3.36-7.5-7.5v-197.8c0-4.14,3.36-7.5,7.5-7.5h120.03
			c4.14,0,7.5,3.36,7.5,7.5v197.8C2588.34,2330.75,2584.98,2334.11,2580.84,2334.11z M2468.31,2319.11h105.03v-182.8h-105.03
			V2319.11z"/>
		<path class="st7" d="M2580.84,2592.88h-120.03c-4.14,0-7.5-3.36-7.5-7.5v-198.55c0-4.14,3.36-7.5,7.5-7.5h120.03
			c4.14,0,7.5,3.36,7.5,7.5v198.55C2588.34,2589.52,2584.98,2592.88,2580.84,2592.88z M2468.31,2577.88h105.03v-183.55h-105.03
			V2577.88z"/>
		<path class="st7" d="M1883.62,2395.08h-38.28c-4.14,0-7.5-3.36-7.5-7.5v-88.49c0-18.83,13.4-28.69,26.64-28.69
			s26.64,9.85,26.64,28.69v88.49C1891.12,2391.72,1887.76,2395.08,1883.62,2395.08z M1852.84,2380.08h23.28v-80.99
			c0-10.1-6.27-13.69-11.64-13.69s-11.64,3.58-11.64,13.69V2380.08z"/>
		<path class="st7" d="M2153.09,2395.08h-38.28c-4.14,0-7.5-3.36-7.5-7.5v-88.49c0-18.83,13.4-28.69,26.64-28.69
			s26.64,9.85,26.64,28.69v88.49C2160.59,2391.72,2157.23,2395.08,2153.09,2395.08z M2122.3,2380.08h23.28v-80.99
			c0-10.1-6.27-13.69-11.64-13.69s-11.64,3.58-11.64,13.69V2380.08z"/>
		<path class="st7" d="M3035.08,2781.77h-350.42c-4.14,0-7.5-3.36-7.5-7.5v-504.18c0-4.14,3.36-7.5,7.5-7.5h367.36
			c2.03,0,3.98,0.83,5.39,2.29c1.42,1.46,2.17,3.44,2.1,5.47l-16.94,504.18C3042.44,2778.56,3039.12,2781.77,3035.08,2781.77z
			 M2692.16,2766.77h335.67l16.44-489.18h-352.11V2766.77z"/>
		<path class="st7" d="M3035.08,2781.77h-350.42c-4.14,0-7.5-3.36-7.5-7.5v-128.65c0-4.14,3.36-7.5,7.5-7.5h355.57
			c2.04,0,3.99,0.83,5.41,2.3c1.41,1.47,2.16,3.46,2.08,5.49l-5.15,128.65C3042.41,2778.59,3039.1,2781.77,3035.08,2781.77z
			 M2692.16,2766.77h335.71l4.55-113.65h-340.26V2766.77z"/>
		<path class="st7" d="M2818.62,2456.79h-86.88c-4.14,0-7.5-3.36-7.5-7.5V2343.7c0-28.8,22.38-51.37,50.96-51.37
			c28.55,0,50.92,22.56,50.92,51.37v105.59C2826.12,2453.43,2822.76,2456.79,2818.62,2456.79z M2739.25,2441.79h71.88v-98.09
			c0-20.39-15.78-36.37-35.92-36.37c-20.16,0-35.96,15.98-35.96,36.37V2441.79z"/>
		<path class="st7" d="M3025.51,2456.79h-80.99c-4.14,0-7.5-3.36-7.5-7.5v-108.55c0-27.14,21.07-48.4,47.98-48.4
			c26.47,0,48.01,21.71,48.01,48.4v108.55C3033.01,2453.43,3029.65,2456.79,3025.51,2456.79z M2952.02,2441.79h65.99v-101.05
			c0-18.42-14.81-33.4-33.01-33.4c-18.8,0-32.98,14.36-32.98,33.4V2441.79z"/>
		<path class="st7" d="M2918.76,2456.79h-80.99c-4.14,0-7.5-3.36-7.5-7.5v-108.55c0-26.69,21.54-48.4,48.01-48.4
			c26.9,0,47.98,21.26,47.98,48.4v108.55C2926.26,2453.43,2922.9,2456.79,2918.76,2456.79z M2845.27,2441.79h65.99v-101.05
			c0-19.04-14.18-33.4-32.98-33.4c-18.2,0-33.01,14.99-33.01,33.4V2441.79z"/>
		<path class="st7" d="M2821.69,2653.12c-0.02,0-0.06,0-0.1,0h-112.67c-4.14,0-7.5-3.36-7.5-7.5c0-25.06-0.2-45.42-0.37-62.09
			c-0.75-76.14-0.78-79.11,24.8-100.18c7.97-6.56,18.88-15.54,33.57-31.04c1.45-1.52,3.52-2.28,5.56-2.34
			c2.09,0.03,4.09,0.94,5.48,2.51c15.12,16.97,26.17,26.1,34.23,32.76c18.47,15.25,23.34,20.85,24.38,59.79
			c-0.47,13.27-0.36,29.84-0.2,52.79c0.09,13.43,0.2,28.84,0.2,46.57c0.06,0.4,0.1,0.81,0.1,1.23
			C2829.19,2649.76,2825.83,2653.12,2821.69,2653.12z M2716.42,2638.12h97.67c-0.02-15.08-0.12-28.41-0.2-40.2
			c-0.16-23.13-0.27-39.84,0.21-52.96c-0.9-33.25-3.66-35.53-18.95-48.15c-7.44-6.15-17.31-14.31-30.44-28.38
			c-12.53,12.69-22.09,20.56-29.32,26.51c-20.04,16.5-20.04,16.5-19.33,88.45C2716.21,2598.39,2716.39,2616.4,2716.42,2638.12z"/>
		<path class="st7" d="M2934.23,2653.12h-112.64c-4.14,0-7.5-3.36-7.5-7.5c0-17.76-0.06-33.16-0.12-46.56
			c-0.37-89.87-0.39-93.37,24.36-113.72c8.08-6.64,19.15-15.74,34.34-32.86c1.39-1.57,3.37-2.49,5.47-2.52
			c2.11-0.04,4.11,0.8,5.56,2.31c14.7,15.36,25.7,24.35,33.74,30.91c16.05,13.12,23.37,19.11,25.02,46.71
			c0.02,0.33,0.02,0.66,0,0.99c-1.04,14.17-0.96,36.02-0.83,69.1c0.05,13.2,0.11,28.3,0.11,45.63
			C2941.73,2649.76,2938.37,2653.12,2934.23,2653.12z M2829.09,2638.12h97.64c-0.01-14.2-0.06-26.83-0.1-38.08
			c-0.13-34.22-0.21-55.03,0.83-69.74c-1.27-20.59-4.5-23.22-19.51-35.49c-7.29-5.95-16.92-13.82-29.46-26.41
			c-13.23,14.23-23.14,22.38-30.62,28.53c-19.24,15.82-19.24,15.82-18.89,102.07C2829.02,2610.49,2829.07,2623.46,2829.09,2638.12z"
			/>
		<path class="st7" d="M3039.49,2653.12h-105.26c-4.14,0-7.5-3.36-7.5-7.5c0-21.88-0.13-40.18-0.24-55.57
			c-0.59-81.96-0.62-85.16,25.52-106.36c8.12-6.59,19.24-15.61,34.2-31.39c1.44-1.51,3.36-2.45,5.53-2.34
			c2.08,0.02,4.07,0.91,5.47,2.46c15.17,16.72,26.2,25.75,34.25,32.34c9.45,7.74,15.7,12.85,19.48,22.86
			c0.35,0.92,0.51,1.91,0.48,2.9l-4.43,135.34C3046.86,2649.91,3043.54,2653.12,3039.49,2653.12z M2941.72,2638.12h90.51
			l4.15-126.49c-2.32-5.21-6.13-8.47-14.42-15.25c-7.43-6.08-17.28-14.14-30.42-28.01c-12.86,13.01-22.67,20.97-30.08,26.98
			c-20.53,16.66-20.53,16.66-19.97,94.6C2941.58,2603.57,2941.7,2619.47,2941.72,2638.12z"/>
		<path class="st7" d="M3004.89,2215.87h-320.23c-4.14,0-7.5-3.36-7.5-7.5v-23.8c0-4.15,3.36-7.5,7.5-7.5h320.23
			c4.14,0,7.5,3.35,7.5,7.5v23.8C3012.39,2212.51,3009.03,2215.87,3004.89,2215.87z M2692.16,2200.87h305.23v-8.8h-305.23V2200.87z"
			/>
		<path class="st7" d="M2901.82,2021.04h-178.89c-3.14,0-5.96-1.96-7.04-4.91c-1.08-2.95-0.21-6.27,2.19-8.3l64.78-55.03
			c1.35-1.15,3.08-1.78,4.85-1.78h48.59c1.76,0,3.47,0.62,4.82,1.76l65.52,55.02c2.41,2.03,3.3,5.35,2.22,8.31
			C2907.78,2019.07,2904.97,2021.04,2901.82,2021.04z M2743.34,2006.04h137.88l-47.66-40.02h-43.11L2743.34,2006.04z"/>
		<path class="st7" d="M2848.07,2021.04h-71.4c-2.62,0-5.05-1.37-6.42-3.61c-1.36-2.24-1.45-5.03-0.23-7.35l28.71-55.03
			c1.29-2.48,3.86-4.03,6.65-4.03h13.97c2.79,0,5.36,1.55,6.65,4.03l28.71,55.03c1.21,2.32,1.12,5.11-0.23,7.35
			C2853.12,2019.67,2850.69,2021.04,2848.07,2021.04z M2789.04,2006.04h46.65l-20.88-40.02h-4.88L2789.04,2006.04z"/>
		<path class="st7" d="M2830.52,1966.02c-0.02,0-0.06,0-0.1,0h-36.81c-4.14,0-7.5-3.35-7.5-7.5c0-14.79,11.62-26.83,25.9-26.83
			c13.82,0,25.15,11.26,25.87,25.4c0.09,0.46,0.13,0.94,0.13,1.43C2838.02,1962.66,2834.66,1966.02,2830.52,1966.02z
			 M2803.59,1951.02h16.78c-2.02-2.62-5.04-4.33-8.36-4.33C2808.62,1946.69,2805.59,1948.37,2803.59,1951.02z"/>
		<path class="st7" d="M2812.01,1916.93c-10.45,0-19.28-8.88-19.28-19.39c0-10.88,8.47-19.4,19.28-19.4
			c10.82,0,19.29,8.52,19.29,19.4C2831.3,1908.05,2822.47,1916.93,2812.01,1916.93z M2812.01,1893.14c-2.48,0-4.28,1.85-4.28,4.4
			c0,1.97,1.97,4.39,4.28,4.39c2.31,0,4.29-2.42,4.29-4.39C2816.3,1895,2814.5,1893.14,2812.01,1893.14z"/>
		<path class="st7" d="M2999.75,2192.07h-315.09c-4.14,0-7.5-3.35-7.5-7.5v-148.72c0-2.27,1.03-4.41,2.78-5.83
			c9.53-7.71,21.76-15.28,37.39-23.17c1.05-0.53,2.21-0.8,3.38-0.8h181.84c1.15,0,2.28,0.26,3.31,0.77
			c66.78,32.87,107.15,94.96,102.84,158.19l-1.47,20.12C3006.94,2189.04,3003.68,2192.07,2999.75,2192.07z M2692.16,2177.07h300.62
			l0.96-13.13c3.85-56.6-32.58-112.55-92.95-142.9h-178.28c-12.42,6.34-22.39,12.41-30.35,18.46V2177.07z"/>
		<path class="st7" d="M3018.89,2277.58h-334.23c-4.14,0-7.5-3.36-7.5-7.5v-61.71c0-4.14,3.36-7.5,7.5-7.5h334.23
			c4.14,0,7.5,3.36,7.5,7.5v61.71C3026.39,2274.22,3023.03,2277.58,3018.89,2277.58z M2692.16,2262.58h319.23v-46.71h-319.23
			V2262.58z"/>
		<path class="st7" d="M3237.65,2781.77c-0.02,0-0.06,0-0.1,0h-202.47c-2.04,0-3.98-0.83-5.4-2.29c-1.41-1.46-2.17-3.44-2.1-5.47
			l37.56-1090.88c0.14-4.04,3.45-7.24,7.5-7.24h127.35c4.04,0,7.36,3.2,7.5,7.24L3245,2772.78c0.1,0.48,0.15,0.98,0.15,1.48
			C3245.15,2778.41,3241.79,2781.77,3237.65,2781.77z M3042.84,2766.77h186.94l-37.04-1075.88h-112.86L3042.84,2766.77z"/>
		<path class="st7" d="M3208.2,1918.43c-0.02,0-0.06,0-0.1,0h-143.58c-2.03,0-3.98-0.83-5.39-2.29s-2.17-3.43-2.1-5.46l5.18-156.9
			c0.13-4.04,3.45-7.25,7.5-7.25h133.23c4.05,0,7.36,3.21,7.5,7.25l5.14,155.67c0.09,0.48,0.14,0.97,0.14,1.47
			C3215.7,1915.07,3212.35,1918.43,3208.2,1918.43z M3072.27,1903.43h128.09l-4.68-141.9h-118.72L3072.27,1903.43z"/>
		<path class="st7" d="M3199.99,1690.88h-127.35c-3.36,0-6.3-2.23-7.22-5.46l-37.56-133.09c-0.64-2.26-0.18-4.69,1.24-6.56
			c1.42-1.87,3.63-2.97,5.98-2.97h202.47c2.35,0,4.56,1.1,5.98,2.97c1.42,1.87,1.88,4.3,1.24,6.56l-37.56,133.09
			C3206.29,1688.65,3203.35,1690.88,3199.99,1690.88z M3078.32,1675.88h116l33.33-118.09h-182.66L3078.32,1675.88z"/>
		<path class="st7" d="M2234.79,2815.96h-468.23c-4.14,0-7.5-3.36-7.5-7.5v-34.19c0-4.14,3.36-7.5,7.5-7.5h468.23
			c4.14,0,7.5,3.36,7.5,7.5v34.19C2242.29,2812.6,2238.94,2815.96,2234.79,2815.96z M1774.06,2800.96h453.23v-19.19h-453.23V2800.96
			z"/>
		<path class="st7" d="M2276.04,2850.14h-549.96c-4.14,0-7.5-3.36-7.5-7.5v-34.18c0-4.14,3.36-7.5,7.5-7.5h549.96
			c4.14,0,7.5,3.36,7.5,7.5v34.18C2283.54,2846.78,2280.19,2850.14,2276.04,2850.14z M1733.58,2835.14h534.96v-19.18h-534.96
			V2835.14z"/>
		<path class="st7" d="M2301.07,2885.09h-600.02c-4.14,0-7.5-3.36-7.5-7.5v-34.95c0-4.14,3.36-7.5,7.5-7.5h600.02
			c4.14,0,7.5,3.36,7.5,7.5v34.95C2308.57,2881.73,2305.21,2885.09,2301.07,2885.09z M1708.55,2870.09h585.02v-19.95h-585.02
			V2870.09z"/>
		<path class="st7" d="M2334.2,2919.31h-667.01c-4.14,0-7.5-3.36-7.5-7.5v-34.22c0-4.14,3.36-7.5,7.5-7.5h667.01
			c4.14,0,7.5,3.36,7.5,7.5v34.22C2341.7,2915.95,2338.34,2919.31,2334.2,2919.31z M1674.69,2904.31h652.01v-19.22h-652.01V2904.31z
			"/>
		<path class="st7" d="M1316.74,2781.77H967.02c-4.04,0-7.35-3.2-7.5-7.24l-17.68-504.18c-0.07-2.04,0.69-4.01,2.1-5.47
			c1.41-1.46,3.36-2.29,5.4-2.29h367.39c4.14,0,7.5,3.36,7.5,7.5v504.18C1324.24,2778.41,1320.88,2781.77,1316.74,2781.77z
			 M974.27,2766.77h334.98v-489.18H957.12L974.27,2766.77z"/>
		<path class="st7" d="M1316.74,2781.77H967.02c-4.01,0-7.31-3.15-7.49-7.16l-5.88-128.65c-0.09-2.05,0.65-4.04,2.07-5.52
			c1.41-1.48,3.37-2.32,5.42-2.32h355.6c4.14,0,7.5,3.36,7.5,7.5v128.65C1324.24,2778.41,1320.88,2781.77,1316.74,2781.77z
			 M974.19,2766.77h335.05v-113.65H968.99L974.19,2766.77z"/>
		<path class="st7" d="M1270.35,2456.79h-87.6c-4.14,0-7.5-3.36-7.5-7.5V2343.7c0-28.33,22.85-51.37,50.94-51.37
			c28.49,0,51.66,23.04,51.66,51.37v105.59C1277.85,2453.43,1274.49,2456.79,1270.35,2456.79z M1190.25,2441.79h72.6v-98.09
			c0-20.05-16.45-36.37-36.66-36.37c-19.82,0-35.94,16.31-35.94,36.37V2441.79z"/>
		<path class="st7" d="M1057.57,2456.79h-80.99c-4.14,0-7.5-3.36-7.5-7.5v-108.55c0-26.69,21.54-48.4,48.01-48.4
			c26.46,0,47.98,21.71,47.98,48.4v108.55C1065.07,2453.43,1061.71,2456.79,1057.57,2456.79z M984.08,2441.79h65.99v-101.05
			c0-18.42-14.79-33.4-32.98-33.4c-18.2,0-33.01,14.99-33.01,33.4V2441.79z"/>
		<path class="st7" d="M1163.6,2456.79h-80.99c-4.14,0-7.5-3.36-7.5-7.5v-108.55c0-26.69,21.53-48.4,48-48.4
			c26.46,0,47.98,21.71,47.98,48.4v108.55C1171.1,2453.43,1167.74,2456.79,1163.6,2456.79z M1090.11,2441.79h65.99v-101.05
			c0-18.42-14.8-33.4-32.98-33.4c-18.2,0-33,14.99-33,33.4V2441.79z"/>
		<path class="st7" d="M1292.44,2653.12h-111.91c-4.14,0-7.5-3.36-7.5-7.5v-100.39c0.52-39.21,5.37-44.83,23.82-60.13
			c8.03-6.66,19.02-15.77,34.04-32.63c1.39-1.56,3.37-2.47,5.46-2.51c2.27,0.05,4.11,0.81,5.55,2.31
			c14.74,15.38,25.69,24.35,33.68,30.9c25.66,21.01,25.63,23.89,24.79,97.73c-0.2,17.08-0.43,38.33-0.43,64.71
			C1299.94,2649.76,1296.59,2653.12,1292.44,2653.12z M1188.03,2638.12h96.92c0.04-23.03,0.25-41.91,0.43-57.38
			c0.79-69.52,0.79-69.52-19.29-85.97c-7.25-5.93-16.84-13.79-29.4-26.38c-13.03,13.98-22.85,22.12-30.26,28.26
			c-15.55,12.9-17.94,14.88-18.39,48.68V2638.12z"/>
		<path class="st7" d="M1180.53,2653.12h-113.37c-4.14,0-7.5-3.36-7.5-7.5c0-24.19,0.23-44.29,0.41-60.43
			c0.29-25.52,0.48-42.38-0.39-54.29c-0.02-0.33-0.03-0.66-0.01-0.99c1.65-27.8,8.44-33.43,24.86-47.03
			c7.89-6.54,18.7-15.49,33.16-30.59c1.45-1.51,3.45-2.29,5.54-2.31c2.09,0.03,4.07,0.94,5.46,2.49
			c15.38,17.14,26.58,26.24,34.76,32.88c25.07,20.36,25.06,23.89,24.69,114.25c-0.05,13.28-0.11,28.51-0.11,46.04
			C1188.03,2649.76,1184.68,2653.12,1180.53,2653.12z M1074.67,2638.12h98.37c0.01-14.44,0.07-27.23,0.11-38.59
			c0.35-86.71,0.35-86.71-19.15-102.54c-7.58-6.16-17.64-14.32-31.06-28.61c-12.29,12.33-21.71,20.14-28.84,26.05
			c-14.94,12.38-18.14,15.03-19.42,35.88c0.87,12.5,0.68,29.5,0.39,55.05C1074.91,2599.77,1074.71,2617.32,1074.67,2638.12z"/>
		<path class="st7" d="M1067.17,2653.12H962.61c-4.03,0-7.34-3.19-7.5-7.22l-5.15-135.34c-0.04-1.1,0.16-2.2,0.59-3.21
			c4.07-9.6,10.41-14.79,19.17-21.98c8.07-6.62,19.13-15.68,34.39-32.88c1.39-1.57,3.37-2.49,5.47-2.52
			c2.13,0.05,4.11,0.8,5.56,2.31c15.01,15.67,26.17,24.68,34.32,31.25c26.18,21.14,26.15,24.24,25.49,103.75
			c-0.13,15.95-0.29,35.13-0.29,58.34C1074.67,2649.76,1071.31,2653.12,1067.17,2653.12z M969.83,2638.12h89.84
			c0.03-19.93,0.17-36.73,0.29-50.97c0.63-75.36,0.63-75.36-19.91-91.95c-7.42-5.99-17.23-13.92-30.1-26.8
			c-13.29,14.31-23.22,22.44-30.7,28.57c-7.27,5.96-11.54,9.45-14.22,14.81L969.83,2638.12z"/>
		<path class="st7" d="M1316.74,2215.87H996.47c-4.14,0-7.5-3.36-7.5-7.5v-23.8c0-4.15,3.36-7.5,7.5-7.5h320.27
			c4.14,0,7.5,3.35,7.5,7.5v23.8C1324.24,2212.51,1320.88,2215.87,1316.74,2215.87z M1003.97,2200.87h305.27v-8.8h-305.27V2200.87z"
			/>
		<path class="st7" d="M1279.28,2021.04c-0.03,0-0.07,0-0.1,0h-178.89c-3.14,0-5.95-1.96-7.04-4.91c-1.08-2.95-0.21-6.27,2.19-8.3
			l64.78-55.03c1.36-1.15,3.08-1.78,4.86-1.78h48.59c1.77,0,3.47,0.62,4.82,1.76l64.82,54.44c2.09,1.33,3.47,3.67,3.47,6.33
			C1286.78,2017.68,1283.42,2021.04,1279.28,2021.04z M1120.7,2006.04h137.88l-47.66-40.02h-43.11L1120.7,2006.04z"/>
		<path class="st7" d="M1224.79,2021.04c-0.03,0-0.07,0-0.1,0h-70.66c-2.62,0-5.05-1.37-6.41-3.61c-1.36-2.24-1.45-5.03-0.23-7.35
			l28.72-55.03c1.29-2.48,3.85-4.03,6.65-4.03h13.24c2.79,0,5.36,1.55,6.65,4.03l28.2,54.04c0.92,1.25,1.46,2.78,1.46,4.45
			C1232.29,2017.68,1228.94,2021.04,1224.79,2021.04z M1166.4,2006.04h45.92l-20.88-40.02h-4.15L1166.4,2006.04z"/>
		<path class="st7" d="M1207.78,1966.02h-36.83c-4.14,0-7.5-3.35-7.5-7.5c0-14.79,11.62-26.83,25.91-26.83
			c14.29,0,25.92,12.04,25.92,26.83C1215.28,1962.66,1211.92,1966.02,1207.78,1966.02z M1180.99,1951.02h16.8
			c-2-2.64-5.04-4.33-8.44-4.33C1186.04,1946.69,1183.02,1948.39,1180.99,1951.02z"/>
		<path class="st7" d="M1189.36,1916.93c-10.44,0-19.26-8.88-19.26-19.39c0-10.88,8.46-19.4,19.26-19.4c10.82,0,19.3,8.52,19.3,19.4
			C1208.65,1908.05,1199.82,1916.93,1189.36,1916.93z M1189.36,1893.14c-2.47,0-4.26,1.85-4.26,4.4c0,1.97,1.97,4.39,4.26,4.39
			c2.31,0,4.3-2.42,4.3-4.39C1193.65,1895,1191.85,1893.14,1189.36,1893.14z"/>
		<path class="st7" d="M1316.74,2192.07h-315.12c-4.04,0-7.35-3.19-7.5-7.22l-0.74-20.08c-4.3-62.98,36.06-125.07,102.85-157.96
			c1.03-0.51,2.16-0.77,3.31-0.77h181.09c1.11,0,2.21,0.24,3.22,0.72c15.96,7.58,28.32,15.23,37.78,23.41
			c1.65,1.43,2.6,3.5,2.6,5.68v148.72C1324.24,2188.72,1320.88,2192.07,1316.74,2192.07z M1008.85,2177.07h300.39v-137.7
			c-7.75-6.2-17.92-12.35-30.3-18.33h-177.63c-60.37,30.37-96.81,86.31-92.95,142.94L1008.85,2177.07z"/>
		<path class="st7" d="M1316.74,2277.58H982.5c-4.14,0-7.5-3.36-7.5-7.5v-61.71c0-4.14,3.36-7.5,7.5-7.5h334.24
			c4.14,0,7.5,3.36,7.5,7.5v61.71C1324.24,2274.22,1320.88,2277.58,1316.74,2277.58z M990,2262.58h319.24v-46.71H990V2262.58z"/>
		<path class="st7" d="M967.02,2781.77H763.84c-2.03,0-3.98-0.83-5.39-2.29c-1.41-1.46-2.17-3.44-2.1-5.47l37.54-1090.88
			c0.14-4.04,3.45-7.24,7.5-7.24h128.11c4.04,0,7.36,3.2,7.5,7.24l37.53,1090.88c0.07,2.03-0.69,4.01-2.1,5.47
			C971,2780.94,969.06,2781.77,967.02,2781.77z M771.6,2766.77h187.66l-37.02-1075.88H808.63L771.6,2766.77z"/>
		<path class="st7" d="M936.84,1918.43H794.02c-2.03,0-3.98-0.83-5.39-2.29c-1.41-1.46-2.17-3.43-2.1-5.46l5.15-156.9
			c0.13-4.04,3.45-7.25,7.5-7.25h132.52c4.05,0,7.36,3.21,7.5,7.25l5.15,156.9c0.07,2.03-0.69,4-2.1,5.46
			C940.82,1917.61,938.87,1918.43,936.84,1918.43z M801.77,1903.43h127.32l-4.66-141.9H806.43L801.77,1903.43z"/>
		<path class="st7" d="M929.49,1690.88H801.38c-3.36,0-6.31-2.23-7.22-5.46l-37.54-133.09c-0.64-2.26-0.18-4.69,1.24-6.56
			c1.42-1.87,3.63-2.97,5.98-2.97h203.19c2.35,0,4.56,1.1,5.98,2.97c1.42,1.87,1.88,4.3,1.24,6.56l-37.53,133.09
			C935.8,1688.65,932.85,1690.88,929.49,1690.88z M807.06,1675.88h116.76l33.3-118.09H773.74L807.06,1675.88z"/>
		<g>
			<path class="st7" d="M2298.11,2653.12c-0.01,0-0.02,0-0.03,0c-4.15-0.01-7.49-3.39-7.47-7.53c0.18-43.7,0.42-83.78,0.64-120.61
				c2.45-411.89,2.45-411.89-110.1-496.05c-42.75-31.96-100.97-75.49-180.62-155.84c-76.86,72.65-134.11,115.32-176.17,146.67
				c-117.45,87.54-117.45,87.54-113.22,439.06c0.65,54.08,1.39,115.38,1.83,186.75c0.02,4.15-3.31,7.52-7.45,7.55
				c-0.01,0-0.03,0-0.05,0c-4.12,0-7.48-3.33-7.5-7.46c-0.44-71.33-1.18-132.6-1.83-186.67c-4.32-359.16-4.32-359.16,119.26-451.26
				c42.72-31.85,101.23-75.45,180.13-150.59c2.96-2.82,7.65-2.74,10.52,0.18c81.51,82.9,140.8,127.23,184.08,159.59
				c118.62,88.69,118.62,88.69,116.12,508.15c-0.22,36.81-0.46,76.89-0.64,120.58C2305.59,2649.78,2302.23,2653.12,2298.11,2653.12z
				"/>
		</g>
		<g>
			<path class="st7" d="M2192.85,2781.77c-4.14,0-7.5-3.36-7.5-7.5v-285.56c0.73-35.03,0.73-69.31,0.73-105.59
				c0-9.3,0.04-18.59,0.09-27.9c0.13-27.44,0.27-55.81-0.82-84.1c-0.77-39.14-3.24-83.24-23.04-112.88
				c-12.23-17.87-30.28-31.21-47.73-44.11c-2.43-1.79-4.83-3.57-7.22-5.36c-20.6-15.52-37.11-28.83-50.38-39.52
				c-29.58-23.83-44.46-35.71-57.81-35.49c-13.64,0.31-29.79,13.08-61.97,38.5c-12.36,9.77-27.75,21.92-46.11,35.75l-4.51,3.24
				c-18.72,13.44-38.09,27.33-50.31,47.46c-19.37,30.07-20.25,76.32-20.96,113.49l-0.02,1c0,18.42,0.19,36.99,0.37,55.55
				c0.18,18.61,0.37,37.23,0.37,55.84c0.36,17.29,0.55,34.73,0.73,52.18c0.19,17.5,0.37,35.01,0.74,52.52l0,284.97
				c0,4.14-3.36,7.5-7.5,7.5s-7.5-3.36-7.5-7.5v-284.81c-0.37-17.4-0.55-34.97-0.74-52.52c-0.18-17.39-0.37-34.79-0.73-52.18
				c0-18.72-0.19-37.29-0.37-55.85c-0.18-18.61-0.37-37.23-0.37-55.84l0.02-1.14c0.74-39.06,1.67-87.67,23.24-121.15
				c13.71-22.58,34.33-37.38,54.28-51.69l4.35-3.13c18.09-13.63,32.76-25.22,45.71-35.45c69.75-55.11,73.63-55.19,138.49-2.92
				c13.19,10.63,29.59,23.85,49.98,39.21c2.33,1.75,4.72,3.51,7.12,5.28c18.46,13.64,37.54,27.74,51.25,47.77
				c22.09,33.08,24.8,79.72,25.61,120.84c1.1,28.47,0.96,57.01,0.83,84.6c-0.05,9.28-0.09,18.55-0.09,27.83
				c0,36.37,0,70.71-0.73,105.75v285.4C2200.35,2778.41,2196.99,2781.77,2192.85,2781.77z"/>
		</g>
		<g>
			<path class="st7" d="M2261.31,2653.12c-4.14,0-7.5-3.36-7.5-7.5c0-59.62,0-121.26,0.73-181.55c0-12.55,0.03-25.2,0.06-37.85
				c0.12-49.65,0.23-100.99-1.52-151.42c-0.69-40.83-1.97-116.58-25.97-152.23c-14.76-21.11-46.18-43.88-69.12-60.5
				c-3.28-2.37-6.41-4.64-9.34-6.8c-52.53-39.44-101.28-81.14-148.88-127.38c-49.58,44.72-99.66,85.7-152.9,125.13
				c-3.27,2.48-6.9,5.17-10.72,8c-22.1,16.38-52.37,38.81-66.19,60.63c-22.4,35.35-22.4,112.79-22.4,154.39
				c-0.73,63.4,0.01,127.51,0.74,189.52l0.03,2.27c0.74,60.82,1.45,118.27,1.45,177.79c0,4.14-3.36,7.5-7.5,7.5s-7.5-3.36-7.5-7.5
				c0-59.44-0.7-116.84-1.45-177.61l-0.03-2.27c-0.72-62.09-1.47-126.29-0.74-189.79c0-46.06,0-123.3,24.72-162.32
				c15.31-24.18,45.6-46.62,69.93-64.65c3.78-2.8,7.36-5.46,10.66-7.95c54.77-40.57,106.11-82.73,157.04-128.96
				c2.94-2.67,7.45-2.59,10.29,0.2c48.74,47.74,98.58,90.6,152.38,130.99c2.84,2.08,5.95,4.34,9.2,6.69
				c23.81,17.25,56.42,40.87,72.69,64.16c26.55,39.44,27.83,115.11,28.6,160.33c1.76,50.57,1.64,102.05,1.52,151.84
				c-0.03,12.64-0.06,25.27-0.06,37.91c-0.73,60.28-0.73,119.14-0.73,181.46C2268.81,2649.76,2265.45,2653.12,2261.31,2653.12z"/>
		</g>
		<g>
			<path class="st7" d="M2192.11,2261.98h-382.83c-4.14,0-7.5-3.36-7.5-7.5s3.36-7.5,7.5-7.5h382.83c4.14,0,7.5,3.36,7.5,7.5
				S2196.25,2261.98,2192.11,2261.98z"/>
		</g>
		<g>
			<path class="st7" d="M2192.11,2234.46h-382.83c-4.14,0-7.5-3.36-7.5-7.5s3.36-7.5,7.5-7.5h382.83c4.14,0,7.5,3.36,7.5,7.5
				S2196.25,2234.46,2192.11,2234.46z"/>
		</g>
		<g>
			<path class="st7" d="M2485.85,1542.92h-969.59c-4.14,0-7.5-3.36-7.5-7.5s3.36-7.5,7.5-7.5h969.59c4.14,0,7.5,3.36,7.5,7.5
				S2489.99,1542.92,2485.85,1542.92z"/>
		</g>
		<g>
			<path class="st7" d="M3044.67,2456.79H2687.6c-4.14,0-7.5-3.36-7.5-7.5s3.36-7.5,7.5-7.5h357.07c4.14,0,7.5,3.36,7.5,7.5
				S3048.81,2456.79,3044.67,2456.79z"/>
		</g>
		<g>
			<path class="st7" d="M2812.01,1893.14c-4.14,0-7.5-3.35-7.5-7.5v-35.69c0-4.14,3.36-7.5,7.5-7.5s7.5,3.36,7.5,7.5v35.69
				C2819.51,1889.79,2816.15,1893.14,2812.01,1893.14z"/>
		</g>
		<g>
			<path class="st7" d="M2812.01,1946.69c-4.14,0-7.5-3.35-7.5-7.5v-29.76c0-4.15,3.36-7.5,7.5-7.5s7.5,3.35,7.5,7.5v29.76
				C2819.51,1943.33,2816.15,1946.69,2812.01,1946.69z"/>
		</g>
		<g>
			<path class="st7" d="M2742.07,2134.81h-55.95c-4.14,0-7.5-3.36-7.5-7.5s3.36-7.5,7.5-7.5h55.95c4.14,0,7.5,3.36,7.5,7.5
				S2746.21,2134.81,2742.07,2134.81z"/>
		</g>
		<g>
			<path class="st7" d="M2711.88,2076.82h-25.76c-4.14,0-7.5-3.35-7.5-7.5s3.36-7.5,7.5-7.5h25.76c4.14,0,7.5,3.35,7.5,7.5
				S2716.03,2076.82,2711.88,2076.82z"/>
		</g>
		<g>
			<path class="st7" d="M3001.22,2152.67h-61.85c-4.14,0-7.5-3.35-7.5-7.5s3.36-7.5,7.5-7.5h61.85c4.14,0,7.5,3.35,7.5,7.5
				S3005.36,2152.67,3001.22,2152.67z"/>
		</g>
		<g>
			<path class="st7" d="M2914.35,2192.07c-0.09,0-0.19,0-0.28,0c-4.14-0.15-7.37-3.63-7.22-7.77l0.73-20.08
				c3.27-57.5-23.48-114.15-68.14-144.48c-3.43-2.32-4.32-6.99-1.99-10.42s7-4.32,10.42-1.99c48.94,33.22,78.26,95.08,74.7,157.58
				l-0.73,19.93C2921.69,2188.89,2918.36,2192.07,2914.35,2192.07z"/>
		</g>
		<g>
			<path class="st7" d="M3194.84,2653.12h-154.62c-4.14,0-7.5-3.36-7.5-7.5s3.36-7.5,7.5-7.5h154.62c4.14,0,7.5,3.36,7.5,7.5
				S3198.98,2653.12,3194.84,2653.12z"/>
		</g>
		<g>
			<path class="st7" d="M3194.84,2653.12h-154.62c-4.14,0-7.5-3.36-7.5-7.5s3.36-7.5,7.5-7.5h154.62c4.14,0,7.5,3.36,7.5,7.5
				S3198.98,2653.12,3194.84,2653.12z"/>
		</g>
		<g>
			<path class="st7" d="M3094.71,2525.21c-0.07,0-0.13,0-0.2,0c-4.14-0.11-7.41-3.55-7.3-7.69l13.26-518.3
				c0.1-4.14,3.81-7.43,7.69-7.3c4.14,0.11,7.41,3.55,7.3,7.7l-13.26,518.29C3102.1,2521.97,3098.76,2525.21,3094.71,2525.21z"/>
		</g>
		<g>
			<path class="st7" d="M3359.76,2781.77H642.35c-4.14,0-7.5-3.36-7.5-7.5s3.36-7.5,7.5-7.5h2717.41c4.14,0,7.5,3.36,7.5,7.5
				S3363.9,2781.77,3359.76,2781.77z"/>
		</g>
		<g>
			<path class="st7" d="M1314.53,2456.79h-357.8c-4.14,0-7.5-3.36-7.5-7.5s3.36-7.5,7.5-7.5h357.8c4.14,0,7.5,3.36,7.5,7.5
				S1318.67,2456.79,1314.53,2456.79z"/>
		</g>
		<g>
			<path class="st7" d="M1189.36,1893.14c-4.14,0-7.5-3.35-7.5-7.5v-35.69c0-4.14,3.36-7.5,7.5-7.5s7.5,3.36,7.5,7.5v35.69
				C1196.86,1889.79,1193.5,1893.14,1189.36,1893.14z"/>
		</g>
		<g>
			<path class="st7" d="M1189.36,1946.69c-4.14,0-7.5-3.35-7.5-7.5v-29.76c0-4.15,3.36-7.5,7.5-7.5s7.5,3.35,7.5,7.5v29.76
				C1196.86,1943.33,1193.5,1946.69,1189.36,1946.69z"/>
		</g>
		<g>
			<path class="st7" d="M1316.01,2134.81h-56.69c-4.14,0-7.5-3.36-7.5-7.5s3.36-7.5,7.5-7.5h56.69c4.14,0,7.5,3.36,7.5,7.5
				S1320.15,2134.81,1316.01,2134.81z"/>
		</g>
		<g>
			<path class="st7" d="M1316.01,2076.82h-26.51c-4.14,0-7.5-3.35-7.5-7.5s3.36-7.5,7.5-7.5h26.51c4.14,0,7.5,3.35,7.5,7.5
				S1320.15,2076.82,1316.01,2076.82z"/>
		</g>
		<g>
			<path class="st7" d="M1062.01,2152.67h-61.12c-4.14,0-7.5-3.35-7.5-7.5s3.36-7.5,7.5-7.5h61.12c4.14,0,7.5,3.35,7.5,7.5
				S1066.15,2152.67,1062.01,2152.67z"/>
		</g>
		<g>
			<path class="st7" d="M1087.02,2192.07c-4.02,0-7.34-3.18-7.49-7.23l-0.73-20.08c-2.87-63.1,26.76-124.93,75.49-157.47
				c3.44-2.3,8.1-1.37,10.4,2.08c2.3,3.44,1.37,8.1-2.07,10.41c-44.46,29.67-71.47,86.34-68.83,144.37l0.73,20.15
				c0.15,4.14-3.08,7.62-7.22,7.77C1087.2,2192.07,1087.11,2192.07,1087.02,2192.07z"/>
		</g>
		<g>
			<path class="st7" d="M961.14,2653.12H806.53c-4.14,0-7.5-3.36-7.5-7.5s3.36-7.5,7.5-7.5h154.61c4.14,0,7.5,3.36,7.5,7.5
				S965.29,2653.12,961.14,2653.12z"/>
		</g>
		<g>
			<path class="st7" d="M961.14,2653.12H806.53c-4.14,0-7.5-3.36-7.5-7.5s3.36-7.5,7.5-7.5h154.61c4.14,0,7.5,3.36,7.5,7.5
				S965.29,2653.12,961.14,2653.12z"/>
		</g>
		<g>
			<path class="st7" d="M907.4,2525.21c-4.06,0-7.39-3.23-7.5-7.31l-13.27-518.29c-0.1-4.14,3.16-7.59,7.3-7.7
				c4.25-0.23,7.58,3.16,7.69,7.3l13.27,518.3c0.1,4.14-3.16,7.58-7.3,7.69C907.52,2525.21,907.46,2525.21,907.4,2525.21z"/>
		</g>
	</g>
</g>
<g id="Layer_1">
</g>
</svg>
